<mxfile host="app.diagrams.net" modified="2022-10-09T07:32:53.880Z" agent="5.0 (Windows NT 10.0; Win64; x64) AppleWebKit/537.36 (KHTML, like Gecko) Chrome/106.0.0.0 Safari/537.36" etag="IpfL_kbMf35vcpzQEB8q" version="20.4.0" type="github" pages="2">
  <diagram id="6a731a19-8d31-9384-78a2-239565b7b9f0" name="Page-1">
    <mxGraphModel dx="1422" dy="705" grid="1" gridSize="10" guides="1" tooltips="1" connect="1" arrows="1" fold="1" page="1" pageScale="1" pageWidth="1169" pageHeight="827" background="#003469" math="0" shadow="0">
      <root>
        <mxCell id="0" />
        <mxCell id="1" parent="0" />
        <mxCell id="2019" value="" style="rounded=1;whiteSpace=wrap;html=1;dashed=1;strokeColor=none;strokeWidth=2;fillColor=#E6E6E6;fontFamily=Verdana;fontSize=12;fontColor=#00BEF2" parent="1" vertex="1">
          <mxGeometry x="40" y="120" width="165" height="670" as="geometry" />
        </mxCell>
        <mxCell id="2020" value="" style="rounded=1;whiteSpace=wrap;html=1;dashed=1;strokeColor=none;strokeWidth=2;fillColor=#E6E6E6;fontFamily=Verdana;fontSize=12;fontColor=#00BEF2" parent="1" vertex="1">
          <mxGeometry x="220" y="120" width="165" height="670" as="geometry" />
        </mxCell>
        <mxCell id="2021" value="" style="rounded=1;whiteSpace=wrap;html=1;dashed=1;strokeColor=none;strokeWidth=2;fillColor=#E6E6E6;fontFamily=Verdana;fontSize=12;fontColor=#00BEF2" parent="1" vertex="1">
          <mxGeometry x="400" y="120" width="165" height="670" as="geometry" />
        </mxCell>
        <mxCell id="2022" value="" style="rounded=1;whiteSpace=wrap;html=1;dashed=1;strokeColor=none;strokeWidth=2;fillColor=#E6E6E6;fontFamily=Verdana;fontSize=12;fontColor=#00BEF2" parent="1" vertex="1">
          <mxGeometry x="580" y="120" width="165" height="670" as="geometry" />
        </mxCell>
        <mxCell id="2023" value="" style="rounded=1;whiteSpace=wrap;html=1;dashed=1;strokeColor=none;strokeWidth=2;fillColor=#E6E6E6;fontFamily=Verdana;fontSize=12;fontColor=#00BEF2" parent="1" vertex="1">
          <mxGeometry x="760" y="120" width="165" height="670" as="geometry" />
        </mxCell>
        <mxCell id="2024" value="" style="rounded=1;whiteSpace=wrap;html=1;dashed=1;strokeColor=none;strokeWidth=2;fillColor=#E6E6E6;fontFamily=Verdana;fontSize=12;fontColor=#00BEF2" parent="1" vertex="1">
          <mxGeometry x="940" y="120" width="165" height="670" as="geometry" />
        </mxCell>
        <mxCell id="2025" value="Event" style="whiteSpace=wrap;html=1;dashed=1;strokeColor=none;strokeWidth=2;fillColor=#3399FF;fontFamily=Helvetica;fontSize=18;fontColor=#FFFFFF;fontStyle=1" parent="1" vertex="1">
          <mxGeometry x="40" y="120" width="165" height="60" as="geometry" />
        </mxCell>
        <mxCell id="2026" value="Compute" style="whiteSpace=wrap;html=1;dashed=1;strokeColor=none;strokeWidth=2;fillColor=#3399FF;fontFamily=Helvetica;fontSize=18;fontColor=#FFFFFF;fontStyle=1" parent="1" vertex="1">
          <mxGeometry x="220" y="120" width="165" height="60" as="geometry" />
        </mxCell>
        <mxCell id="2027" value="Data&lt;div&gt;Services&lt;/div&gt;" style="whiteSpace=wrap;html=1;dashed=1;strokeColor=none;strokeWidth=2;fillColor=#3399FF;fontFamily=Helvetica;fontSize=18;fontColor=#FFFFFF;fontStyle=1" parent="1" vertex="1">
          <mxGeometry x="400" y="120" width="165" height="60" as="geometry" />
        </mxCell>
        <mxCell id="2028" value="Data&lt;div&gt;Storage&lt;/div&gt;" style="whiteSpace=wrap;html=1;dashed=1;strokeColor=none;strokeWidth=2;fillColor=#3399FF;fontFamily=Helvetica;fontSize=18;fontColor=#FFFFFF;fontStyle=1" parent="1" vertex="1">
          <mxGeometry x="580" y="120" width="165" height="60" as="geometry" />
        </mxCell>
        <mxCell id="2029" value="App&lt;div&gt;Services&lt;/div&gt;" style="whiteSpace=wrap;html=1;dashed=1;strokeColor=none;strokeWidth=2;fillColor=#3399FF;fontFamily=Helvetica;fontSize=18;fontColor=#FFFFFF;fontStyle=1" parent="1" vertex="1">
          <mxGeometry x="760" y="120" width="165" height="60" as="geometry" />
        </mxCell>
        <mxCell id="2030" value="&amp;nbsp; &amp;nbsp;Presentation" style="whiteSpace=wrap;html=1;dashed=1;strokeColor=none;strokeWidth=2;fillColor=#3399FF;fontFamily=Helvetica;fontSize=18;fontColor=#FFFFFF;fontStyle=1" parent="1" vertex="1">
          <mxGeometry x="940" y="120" width="165" height="60" as="geometry" />
        </mxCell>
        <mxCell id="2031" value="" style="shape=mxgraph.arrows.two_way_arrow_horizontal;html=1;verticalLabelPosition=bottom;verticalAlign=top;strokeWidth=2;strokeColor=none;dashed=1;fillColor=#FFFFFF;fontFamily=Verdana;fontSize=12;fontColor=#00BEF2" parent="1" vertex="1">
          <mxGeometry x="180" y="131" width="67" height="39" as="geometry" />
        </mxCell>
        <mxCell id="2032" value="" style="shape=mxgraph.arrows.two_way_arrow_horizontal;html=1;verticalLabelPosition=bottom;verticalAlign=top;strokeWidth=2;strokeColor=none;dashed=1;fillColor=#FFFFFF;fontFamily=Verdana;fontSize=12;fontColor=#00BEF2" parent="1" vertex="1">
          <mxGeometry x="360" y="131" width="67" height="39" as="geometry" />
        </mxCell>
        <mxCell id="2033" value="" style="shape=mxgraph.arrows.two_way_arrow_horizontal;html=1;verticalLabelPosition=bottom;verticalAlign=top;strokeWidth=2;strokeColor=none;dashed=1;fillColor=#FFFFFF;fontFamily=Verdana;fontSize=12;fontColor=#00BEF2" parent="1" vertex="1">
          <mxGeometry x="540" y="131" width="67" height="39" as="geometry" />
        </mxCell>
        <mxCell id="2034" value="" style="shape=mxgraph.arrows.two_way_arrow_horizontal;html=1;verticalLabelPosition=bottom;verticalAlign=top;strokeWidth=2;strokeColor=none;dashed=1;fillColor=#FFFFFF;fontFamily=Verdana;fontSize=12;fontColor=#00BEF2" parent="1" vertex="1">
          <mxGeometry x="720" y="131" width="67" height="39" as="geometry" />
        </mxCell>
        <mxCell id="2035" value="" style="shape=mxgraph.arrows.two_way_arrow_horizontal;html=1;verticalLabelPosition=bottom;verticalAlign=top;strokeWidth=2;strokeColor=none;dashed=1;fillColor=#FFFFFF;fontFamily=Verdana;fontSize=12;fontColor=#00BEF2" parent="1" vertex="1">
          <mxGeometry x="900" y="131" width="67" height="39" as="geometry" />
        </mxCell>
        <mxCell id="2036" value="" style="verticalLabelPosition=bottom;html=1;verticalAlign=top;strokeColor=none;fillColor=#003366;shape=mxgraph.azure.cloud_service;dashed=1;fontFamily=Helvetica;fontSize=18;fontColor=#FFFFFF;opacity=25" parent="1" vertex="1">
          <mxGeometry x="90" y="180" width="970" height="600" as="geometry" />
        </mxCell>
        <mxCell id="2037" value="" style="verticalLabelPosition=bottom;html=1;verticalAlign=top;strokeColor=none;fillColor=#3399FF;shape=mxgraph.azure.tablet;dashed=1;fontFamily=Helvetica;fontSize=14;fontColor=#004C99" parent="1" vertex="1">
          <mxGeometry x="66" y="401" width="50" height="37.5" as="geometry" />
        </mxCell>
        <mxCell id="2038" value="" style="verticalLabelPosition=bottom;html=1;verticalAlign=top;strokeColor=none;fillColor=#3399FF;shape=mxgraph.azure.mobile;dashed=1;fontFamily=Helvetica;fontSize=14;fontColor=#004C99" parent="1" vertex="1">
          <mxGeometry x="146" y="395" width="35" height="50" as="geometry" />
        </mxCell>
        <mxCell id="2039" value="Devices" style="verticalLabelPosition=bottom;html=1;verticalAlign=top;strokeColor=none;fillColor=#3399FF;shape=mxgraph.azure.laptop;dashed=1;fontFamily=Helvetica;fontSize=14;fontColor=#004C99" parent="1" vertex="1">
          <mxGeometry x="96" y="451" width="50" height="30" as="geometry" />
        </mxCell>
        <mxCell id="2040" value="Applications" style="verticalLabelPosition=bottom;html=1;verticalAlign=top;strokeColor=none;fillColor=#3399FF;shape=mxgraph.azure.mobile_services;dashed=1;fontFamily=Helvetica;fontSize=14;fontColor=#004C99" parent="1" vertex="1">
          <mxGeometry x="107" y="250" width="32.5" height="50" as="geometry" />
        </mxCell>
        <mxCell id="2041" value="Social" style="verticalLabelPosition=bottom;html=1;verticalAlign=top;strokeColor=none;fillColor=#3399FF;shape=mxgraph.azure.user;dashed=1;fontSize=14;fontColor=#004C99" parent="1" vertex="1">
          <mxGeometry x="92" y="680" width="47.5" height="50" as="geometry" />
        </mxCell>
        <mxCell id="2042" value="" style="verticalLabelPosition=bottom;html=1;verticalAlign=top;strokeColor=none;fillColor=#3399FF;shape=mxgraph.azure.github_code;dashed=1;fontSize=14;fontColor=#004C99" parent="1" vertex="1">
          <mxGeometry x="133" y="560" width="50" height="50" as="geometry" />
        </mxCell>
        <mxCell id="2043" value="" style="verticalLabelPosition=bottom;html=1;verticalAlign=top;strokeColor=none;fillColor=#3399FF;shape=mxgraph.azure.dropbox_code_source;dashed=1;fontSize=14;fontColor=#004C99" parent="1" vertex="1">
          <mxGeometry x="73" y="563" width="50" height="47.5" as="geometry" />
        </mxCell>
        <mxCell id="2044" value="Repositories" style="text;html=1;strokeColor=none;fillColor=none;align=center;verticalAlign=middle;whiteSpace=wrap;overflow=hidden;dashed=1;fontSize=14;fontColor=#004C99" parent="1" vertex="1">
          <mxGeometry x="60" y="620" width="120" height="20" as="geometry" />
        </mxCell>
        <mxCell id="2045" value="Azure Website" style="verticalLabelPosition=bottom;html=1;verticalAlign=top;strokeColor=none;fillColor=#3399FF;shape=mxgraph.azure.azure_website;dashed=1;fontSize=14;fontColor=#004C99" parent="1" vertex="1">
          <mxGeometry x="278" y="258" width="50" height="50" as="geometry" />
        </mxCell>
        <mxCell id="2046" value="Mobile Services" style="verticalLabelPosition=bottom;html=1;verticalAlign=top;strokeColor=none;fillColor=#3399FF;shape=mxgraph.azure.mobile_services;dashed=1;fontSize=14;fontColor=#004C99" parent="1" vertex="1">
          <mxGeometry x="287" y="661" width="32.5" height="50" as="geometry" />
        </mxCell>
        <mxCell id="2047" value="Windows Azure Management Portal" style="text;html=1;strokeColor=none;fillColor=none;align=center;verticalAlign=middle;whiteSpace=wrap;overflow=hidden;dashed=1;fontSize=36;fontColor=#FFFFFF;fontFamily=Helvetica;fontStyle=1" parent="1" vertex="1">
          <mxGeometry x="40" y="50" width="1060" height="50" as="geometry" />
        </mxCell>
        <mxCell id="2048" value="Business&amp;nbsp;&lt;div&gt;Analytics&lt;/div&gt;" style="rounded=1;whiteSpace=wrap;html=1;dashed=1;strokeColor=none;strokeWidth=2;fillColor=#FFFFFF;fontFamily=Helvetica;fontSize=14;fontColor=#FFB366;opacity=75;verticalAlign=top;fontStyle=1" parent="1" vertex="1">
          <mxGeometry x="410" y="190" width="140" height="260" as="geometry" />
        </mxCell>
        <mxCell id="2049" value="Data&lt;div&gt;Management&lt;/div&gt;" style="rounded=1;whiteSpace=wrap;html=1;dashed=1;strokeColor=none;strokeWidth=2;fillColor=#FFFFFF;fontFamily=Helvetica;fontSize=14;fontColor=#FFB366;opacity=75;verticalAlign=top;fontStyle=1" parent="1" vertex="1">
          <mxGeometry x="413" y="460" width="140" height="320" as="geometry" />
        </mxCell>
        <mxCell id="2050" value="SQL Reporting" style="verticalLabelPosition=bottom;html=1;verticalAlign=top;strokeColor=none;fillColor=#3399FF;shape=mxgraph.azure.sql_reporting;dashed=1;fontSize=14;fontColor=#004C99" parent="1" vertex="1">
          <mxGeometry x="460" y="258" width="40" height="50" as="geometry" />
        </mxCell>
        <mxCell id="2051" value="HDInsight" style="verticalLabelPosition=bottom;html=1;verticalAlign=top;strokeColor=none;fillColor=#3399FF;shape=mxgraph.azure.hdinsight;dashed=1;fontSize=14;fontColor=#004C99" parent="1" vertex="1">
          <mxGeometry x="458" y="355" width="50" height="50" as="geometry" />
        </mxCell>
        <mxCell id="2052" value="SQL Database" style="verticalLabelPosition=bottom;html=1;verticalAlign=top;strokeColor=none;fillColor=#3399FF;shape=mxgraph.azure.sql_database;dashed=1;fontFamily=Helvetica;fontSize=14;fontColor=#004C99" parent="1" vertex="1">
          <mxGeometry x="464" y="600" width="37.5" height="50" as="geometry" />
        </mxCell>
        <mxCell id="2053" value="Tables" style="verticalLabelPosition=bottom;html=1;verticalAlign=top;strokeColor=none;fillColor=#3399FF;shape=mxgraph.azure.storage_table;dashed=1;fontFamily=Helvetica;fontSize=14;fontColor=#004C99" parent="1" vertex="1">
          <mxGeometry x="458" y="689" width="50" height="45" as="geometry" />
        </mxCell>
        <mxCell id="2054" value="Blobs" style="verticalLabelPosition=bottom;html=1;verticalAlign=top;strokeColor=none;fillColor=#3399FF;shape=mxgraph.azure.storage_blob;dashed=1;fontFamily=Helvetica;fontSize=14;fontColor=#004C99" parent="1" vertex="1">
          <mxGeometry x="457" y="523" width="50" height="45" as="geometry" />
        </mxCell>
        <mxCell id="2055" value="Storage Management" style="rounded=1;whiteSpace=wrap;html=1;dashed=1;strokeColor=none;strokeWidth=2;fillColor=#FFFFFF;fontFamily=Helvetica;fontSize=14;fontColor=#FFB366;opacity=75;verticalAlign=top;fontStyle=1" parent="1" vertex="1">
          <mxGeometry x="594" y="240" width="140" height="280" as="geometry" />
        </mxCell>
        <mxCell id="2056" value="Storage Servers" style="verticalLabelPosition=bottom;html=1;verticalAlign=top;strokeColor=none;fillColor=#3399FF;shape=mxgraph.azure.server_rack;dashed=1;fontFamily=Helvetica;fontSize=14;fontColor=#004C99" parent="1" vertex="1">
          <mxGeometry x="639" y="316" width="50" height="50" as="geometry" />
        </mxCell>
        <mxCell id="2057" value="Database" style="verticalLabelPosition=bottom;html=1;verticalAlign=top;strokeColor=none;fillColor=#3399FF;shape=mxgraph.azure.database;dashed=1;fontFamily=Helvetica;fontSize=14;fontColor=#004C99" parent="1" vertex="1">
          <mxGeometry x="644" y="414" width="37.5" height="50" as="geometry" />
        </mxCell>
        <mxCell id="2058" value="Physical&lt;div&gt;Data Storage&lt;/div&gt;" style="verticalLabelPosition=bottom;html=1;verticalAlign=top;strokeColor=none;fillColor=#3399FF;shape=mxgraph.azure.vhd;dashed=1;fontFamily=Helvetica;fontSize=14;fontColor=#004C99" parent="1" vertex="1">
          <mxGeometry x="643" y="590" width="40" height="50" as="geometry" />
        </mxCell>
        <mxCell id="2059" value="Identity" style="rounded=1;whiteSpace=wrap;html=1;dashed=1;strokeColor=none;strokeWidth=2;fillColor=#FFFFFF;fontFamily=Helvetica;fontSize=14;fontColor=#FFB366;opacity=75;verticalAlign=top;fontStyle=1" parent="1" vertex="1">
          <mxGeometry x="773" y="196" width="140" height="134" as="geometry" />
        </mxCell>
        <mxCell id="2060" value="Windows Azure&amp;nbsp;&lt;div&gt;Active Directorry&lt;/div&gt;" style="verticalLabelPosition=bottom;html=1;verticalAlign=top;strokeColor=none;fillColor=#3399FF;shape=mxgraph.azure.azure_active_directory;dashed=1;fontFamily=Helvetica;fontSize=14;fontColor=#004C99" parent="1" vertex="1">
          <mxGeometry x="819" y="225" width="47.5" height="50" as="geometry" />
        </mxCell>
        <mxCell id="2061" value="Performance" style="rounded=1;whiteSpace=wrap;html=1;dashed=1;strokeColor=none;strokeWidth=2;fillColor=#FFFFFF;fontFamily=Helvetica;fontSize=14;fontColor=#FFB366;opacity=75;verticalAlign=top;fontStyle=1" parent="1" vertex="1">
          <mxGeometry x="774" y="341" width="140" height="199" as="geometry" />
        </mxCell>
        <mxCell id="2062" value="Caching" style="verticalLabelPosition=bottom;html=1;verticalAlign=top;strokeColor=none;fillColor=#3399FF;shape=mxgraph.azure.azure_cache;dashed=1;fontFamily=Helvetica;fontSize=14;fontColor=#004C99" parent="1" vertex="1">
          <mxGeometry x="821" y="376" width="45" height="50" as="geometry" />
        </mxCell>
        <mxCell id="2063" value="Content&amp;nbsp;&lt;div&gt;Delivery Network&lt;/div&gt;" style="verticalLabelPosition=bottom;html=1;verticalAlign=top;strokeColor=none;fillColor=#3399FF;shape=mxgraph.azure.content_delivery_network;dashed=1;fontFamily=Helvetica;fontSize=14;fontColor=#004C99" parent="1" vertex="1">
          <mxGeometry x="819" y="455" width="50" height="32.5" as="geometry" />
        </mxCell>
        <mxCell id="2064" value="Messaging" style="rounded=1;whiteSpace=wrap;html=1;dashed=1;strokeColor=none;strokeWidth=2;fillColor=#FFFFFF;fontFamily=Helvetica;fontSize=14;fontColor=#FFB366;opacity=75;verticalAlign=top;fontStyle=1" parent="1" vertex="1">
          <mxGeometry x="773" y="550" width="140" height="229" as="geometry" />
        </mxCell>
        <mxCell id="2065" value="Queues" style="verticalLabelPosition=bottom;html=1;verticalAlign=top;strokeColor=none;fillColor=#3399FF;shape=mxgraph.azure.queue_generic;dashed=1;fontFamily=Helvetica;fontSize=14;fontColor=#004C99" parent="1" vertex="1">
          <mxGeometry x="820" y="576" width="50" height="15" as="geometry" />
        </mxCell>
        <mxCell id="2066" value="Service Bus" style="verticalLabelPosition=bottom;html=1;verticalAlign=top;strokeColor=none;fillColor=#3399FF;shape=mxgraph.azure.service_bus;dashed=1;fontFamily=Helvetica;fontSize=14;fontColor=#004C99" parent="1" vertex="1">
          <mxGeometry x="824" y="624" width="45" height="50" as="geometry" />
        </mxCell>
        <mxCell id="2067" value="Media Services" style="verticalLabelPosition=bottom;html=1;verticalAlign=top;strokeColor=none;fillColor=#3399FF;shape=mxgraph.azure.media_service;dashed=1;fontFamily=Helvetica;fontSize=14;fontColor=#004C99" parent="1" vertex="1">
          <mxGeometry x="821" y="703" width="45" height="50" as="geometry" />
        </mxCell>
        <mxCell id="2068" value="Cloud&lt;div&gt;Services&lt;/div&gt;" style="rounded=1;whiteSpace=wrap;html=1;dashed=1;strokeColor=none;strokeWidth=2;fillColor=#FFFFFF;fontFamily=Helvetica;fontSize=14;fontColor=#FFB366;opacity=75;verticalAlign=top;fontStyle=1" parent="1" vertex="1">
          <mxGeometry x="233" y="397" width="140" height="223" as="geometry" />
        </mxCell>
        <mxCell id="2069" value="Cloud" style="verticalLabelPosition=bottom;html=1;verticalAlign=top;strokeColor=none;fillColor=#3399FF;shape=mxgraph.azure.cloud;dashed=1;fontSize=14;fontColor=#004C99" parent="1" vertex="1">
          <mxGeometry x="278" y="449" width="50" height="32.5" as="geometry" />
        </mxCell>
        <mxCell id="2070" value="Virtual Machine" style="verticalLabelPosition=bottom;html=1;verticalAlign=top;strokeColor=none;fillColor=#3399FF;shape=mxgraph.azure.virtual_machine;dashed=1;fontSize=14;fontColor=#004C99" parent="1" vertex="1">
          <mxGeometry x="278" y="536" width="50" height="40" as="geometry" />
        </mxCell>
        <mxCell id="2071" value="Web Dashboards" style="verticalLabelPosition=bottom;html=1;verticalAlign=top;strokeColor=none;fillColor=#3399FF;shape=mxgraph.azure.laptop;dashed=1;fontFamily=Helvetica;fontSize=14;fontColor=#004C99" parent="1" vertex="1">
          <mxGeometry x="998" y="301" width="50" height="30" as="geometry" />
        </mxCell>
        <mxCell id="2072" value="Certificates" style="verticalLabelPosition=bottom;html=1;verticalAlign=top;strokeColor=none;fillColor=#3399FF;shape=mxgraph.azure.certificate;dashed=1;fontFamily=Helvetica;fontSize=14;fontColor=#004C99" parent="1" vertex="1">
          <mxGeometry x="998" y="399" width="50" height="40" as="geometry" />
        </mxCell>
        <mxCell id="2073" value="Enterprise&lt;div&gt;Services&lt;/div&gt;" style="verticalLabelPosition=bottom;html=1;verticalAlign=top;strokeColor=none;fillColor=#3399FF;shape=mxgraph.azure.enterprise;dashed=1;fontFamily=Helvetica;fontSize=14;fontColor=#004C99" parent="1" vertex="1">
          <mxGeometry x="1008" y="518" width="30" height="50" as="geometry" />
        </mxCell>
        <mxCell id="2074" value="Seminars" style="verticalLabelPosition=bottom;html=1;verticalAlign=top;strokeColor=none;fillColor=#3399FF;shape=mxgraph.azure.user;dashed=1;fontFamily=Helvetica;fontSize=14;fontColor=#004C99" parent="1" vertex="1">
          <mxGeometry x="1001" y="630" width="47.5" height="50" as="geometry" />
        </mxCell>
        <mxCell id="2075" value="" style="arrow;html=1;endArrow=block;endFill=1;strokeColor=none;strokeWidth=4;fontFamily=Helvetica;fontSize=36;fontColor=#FFB366;fillColor=#FFB366;" parent="1" edge="1">
          <mxGeometry width="100" height="100" relative="1" as="geometry">
            <mxPoint x="167" y="283" as="sourcePoint" />
            <mxPoint x="247" y="283" as="targetPoint" />
          </mxGeometry>
        </mxCell>
        <mxCell id="2076" value="" style="arrow;html=1;endArrow=block;endFill=1;strokeColor=none;strokeWidth=4;fontFamily=Helvetica;fontSize=36;fontColor=#FFB366;fillColor=#FFB366;opacity=100" parent="1" edge="1">
          <mxGeometry width="100" height="100" relative="1" as="geometry">
            <mxPoint x="347" y="283" as="sourcePoint" />
            <mxPoint x="427" y="283" as="targetPoint" />
          </mxGeometry>
        </mxCell>
        <mxCell id="2077" value="" style="arrow;html=1;endArrow=block;endFill=1;strokeColor=none;strokeWidth=4;fontFamily=Helvetica;fontSize=36;fontColor=#FFB366;fillColor=#FFB366;" parent="1" edge="1">
          <mxGeometry width="100" height="100" relative="1" as="geometry">
            <mxPoint x="527" y="360" as="sourcePoint" />
            <mxPoint x="607" y="360" as="targetPoint" />
          </mxGeometry>
        </mxCell>
        <mxCell id="2078" value="" style="arrow;html=1;endArrow=block;endFill=1;strokeColor=none;strokeWidth=4;fontFamily=Helvetica;fontSize=36;fontColor=#FFB366;fillColor=#FFB366;" parent="1" edge="1">
          <mxGeometry width="100" height="100" relative="1" as="geometry">
            <mxPoint x="714" y="426" as="sourcePoint" />
            <mxPoint x="794" y="426" as="targetPoint" />
          </mxGeometry>
        </mxCell>
        <mxCell id="2079" value="" style="arrow;html=1;endArrow=block;endFill=1;strokeColor=none;strokeWidth=4;fontFamily=Helvetica;fontSize=36;fontColor=#FFB366;fillColor=#FFB366;" parent="1" edge="1">
          <mxGeometry width="100" height="100" relative="1" as="geometry">
            <mxPoint x="714" y="270" as="sourcePoint" />
            <mxPoint x="794" y="270" as="targetPoint" />
          </mxGeometry>
        </mxCell>
        <mxCell id="2080" value="" style="arrow;html=1;endArrow=block;endFill=1;strokeColor=none;strokeWidth=4;fontFamily=Helvetica;fontSize=36;fontColor=#FFB366;fillColor=#FFB366;" parent="1" edge="1">
          <mxGeometry width="100" height="100" relative="1" as="geometry">
            <mxPoint x="887" y="438" as="sourcePoint" />
            <mxPoint x="967" y="438" as="targetPoint" />
          </mxGeometry>
        </mxCell>
        <mxCell id="2081" value="" style="arrow;html=1;endArrow=block;endFill=1;strokeColor=none;strokeWidth=4;fontFamily=Helvetica;fontSize=36;fontColor=#FFB366;fillColor=#FFB366;" parent="1" edge="1">
          <mxGeometry width="100" height="100" relative="1" as="geometry">
            <mxPoint x="894" y="664" as="sourcePoint" />
            <mxPoint x="974" y="664" as="targetPoint" />
          </mxGeometry>
        </mxCell>
        <mxCell id="2082" value="" style="arrow;html=1;endArrow=block;endFill=1;strokeColor=none;strokeWidth=4;fontFamily=Helvetica;fontSize=36;fontColor=#FFB366;fillColor=#FFB366;" parent="1" edge="1">
          <mxGeometry width="100" height="100" relative="1" as="geometry">
            <mxPoint x="707" y="639" as="sourcePoint" />
            <mxPoint x="787" y="639" as="targetPoint" />
          </mxGeometry>
        </mxCell>
        <mxCell id="2083" value="" style="arrow;html=1;endArrow=block;endFill=1;strokeColor=none;strokeWidth=4;fontFamily=Helvetica;fontSize=36;fontColor=#FFB366;fillColor=#FFB366;" parent="1" edge="1">
          <mxGeometry width="100" height="100" relative="1" as="geometry">
            <mxPoint x="534" y="624" as="sourcePoint" />
            <mxPoint x="614" y="624" as="targetPoint" />
          </mxGeometry>
        </mxCell>
        <mxCell id="2084" value="" style="arrow;html=1;endArrow=block;endFill=1;strokeColor=none;strokeWidth=4;fontFamily=Helvetica;fontSize=36;fontColor=#FFB366;fillColor=#FFB366;" parent="1" edge="1">
          <mxGeometry width="100" height="100" relative="1" as="geometry">
            <mxPoint x="347" y="536" as="sourcePoint" />
            <mxPoint x="427" y="536" as="targetPoint" />
          </mxGeometry>
        </mxCell>
        <mxCell id="2085" value="" style="arrow;html=1;endArrow=block;endFill=1;strokeColor=none;strokeWidth=4;fontFamily=Helvetica;fontSize=36;fontColor=#FFB366;fillColor=#FFB366;" parent="1" edge="1">
          <mxGeometry width="100" height="100" relative="1" as="geometry">
            <mxPoint x="174" y="688" as="sourcePoint" />
            <mxPoint x="254" y="688" as="targetPoint" />
          </mxGeometry>
        </mxCell>
      </root>
    </mxGraphModel>
  </diagram>
  <diagram id="QLSnAHWbrAb_wcyyWv34" name="第 2 页">
    <mxGraphModel dx="1422" dy="762" grid="1" gridSize="10" guides="1" tooltips="1" connect="1" arrows="1" fold="1" page="1" pageScale="1" pageWidth="850" pageHeight="1100" math="0" shadow="0">
      <root>
        <mxCell id="0" />
        <mxCell id="1" parent="0" />
        <mxCell id="JS7ru937FT7HgsVUrFU_-71" value="" style="edgeStyle=orthogonalEdgeStyle;rounded=0;orthogonalLoop=1;jettySize=auto;html=1;exitX=1;exitY=0.5;exitDx=0;exitDy=0;exitPerimeter=0;entryX=0;entryY=0.5;entryDx=0;entryDy=0;fontSize=11;endArrow=none;" edge="1" parent="1" source="JS7ru937FT7HgsVUrFU_-46" target="JS7ru937FT7HgsVUrFU_-56">
          <mxGeometry relative="1" as="geometry">
            <mxPoint x="400" y="920" as="sourcePoint" />
            <mxPoint x="520" y="800" as="targetPoint" />
            <Array as="points">
              <mxPoint x="420" y="920" />
              <mxPoint x="420" y="860" />
            </Array>
          </mxGeometry>
        </mxCell>
        <mxCell id="JS7ru937FT7HgsVUrFU_-43" style="edgeStyle=orthogonalEdgeStyle;rounded=0;orthogonalLoop=1;jettySize=auto;html=1;exitX=1;exitY=0.5;exitDx=0;exitDy=0;exitPerimeter=0;entryX=0;entryY=0.5;entryDx=0;entryDy=0;fontSize=11;startArrow=none;" edge="1" parent="1" source="JS7ru937FT7HgsVUrFU_-56" target="JS7ru937FT7HgsVUrFU_-48">
          <mxGeometry relative="1" as="geometry">
            <Array as="points">
              <mxPoint x="498" y="860" />
              <mxPoint x="498" y="800" />
            </Array>
          </mxGeometry>
        </mxCell>
        <mxCell id="JS7ru937FT7HgsVUrFU_-12" style="edgeStyle=orthogonalEdgeStyle;rounded=0;orthogonalLoop=1;jettySize=auto;html=1;fontSize=11;startArrow=none;" edge="1" parent="1" source="JS7ru937FT7HgsVUrFU_-15" target="JS7ru937FT7HgsVUrFU_-5">
          <mxGeometry relative="1" as="geometry" />
        </mxCell>
        <mxCell id="JS7ru937FT7HgsVUrFU_-2" value="&lt;font style=&quot;font-size: 11px;&quot;&gt;Broker&lt;/font&gt;" style="outlineConnect=0;dashed=0;verticalLabelPosition=bottom;verticalAlign=top;align=center;html=1;shape=mxgraph.aws3.queue;fillColor=#f0a30a;strokeColor=#BD7000;fontColor=#000000;" vertex="1" parent="1">
          <mxGeometry x="240" y="120" width="160" height="80" as="geometry" />
        </mxCell>
        <mxCell id="JS7ru937FT7HgsVUrFU_-6" value="&#xa;&#xa;&#xa;&#xa;&#xa;&#xa;Consumer" style="group;fontSize=11;" vertex="1" connectable="0" parent="1">
          <mxGeometry x="520" y="120" width="80" height="80" as="geometry" />
        </mxCell>
        <mxCell id="JS7ru937FT7HgsVUrFU_-5" value="" style="ellipse;whiteSpace=wrap;html=1;aspect=fixed;fillColor=#cce5ff;strokeColor=#36393d;" vertex="1" parent="JS7ru937FT7HgsVUrFU_-6">
          <mxGeometry width="80" height="80" as="geometry" />
        </mxCell>
        <mxCell id="JS7ru937FT7HgsVUrFU_-3" value="" style="html=1;verticalLabelPosition=bottom;align=center;labelBackgroundColor=#ffffff;verticalAlign=top;strokeWidth=2;strokeColor=#36393d;shadow=0;dashed=0;shape=mxgraph.ios7.icons.settings;fillColor=#eeeeee;" vertex="1" parent="JS7ru937FT7HgsVUrFU_-6">
          <mxGeometry x="17.5" y="17.5" width="45" height="45" as="geometry" />
        </mxCell>
        <mxCell id="JS7ru937FT7HgsVUrFU_-10" value="&#xa;&#xa;&#xa;&#xa;&#xa;&#xa;Producer" style="group;fontSize=11;" vertex="1" connectable="0" parent="1">
          <mxGeometry x="50" y="120" width="80" height="80" as="geometry" />
        </mxCell>
        <mxCell id="JS7ru937FT7HgsVUrFU_-8" value="" style="ellipse;whiteSpace=wrap;html=1;aspect=fixed;fillColor=#66FFB3;strokeColor=#36393d;" vertex="1" parent="JS7ru937FT7HgsVUrFU_-10">
          <mxGeometry width="80" height="80" as="geometry" />
        </mxCell>
        <mxCell id="JS7ru937FT7HgsVUrFU_-9" value="" style="html=1;verticalLabelPosition=bottom;align=center;labelBackgroundColor=#ffffff;verticalAlign=top;strokeWidth=2;strokeColor=#36393d;shadow=0;dashed=0;shape=mxgraph.ios7.icons.settings;fillColor=#eeeeee;" vertex="1" parent="JS7ru937FT7HgsVUrFU_-10">
          <mxGeometry x="17.5" y="17.5" width="45" height="45" as="geometry" />
        </mxCell>
        <mxCell id="JS7ru937FT7HgsVUrFU_-11" style="edgeStyle=orthogonalEdgeStyle;rounded=0;orthogonalLoop=1;jettySize=auto;html=1;entryX=0;entryY=0.5;entryDx=0;entryDy=0;entryPerimeter=0;fontSize=11;startArrow=none;" edge="1" parent="1" source="JS7ru937FT7HgsVUrFU_-13" target="JS7ru937FT7HgsVUrFU_-2">
          <mxGeometry relative="1" as="geometry" />
        </mxCell>
        <mxCell id="JS7ru937FT7HgsVUrFU_-13" value="" style="shape=message;html=1;whiteSpace=wrap;html=1;outlineConnect=0;fontSize=11;fillColor=#fff2cc;strokeColor=#d6b656;" vertex="1" parent="1">
          <mxGeometry x="170" y="150" width="30" height="20" as="geometry" />
        </mxCell>
        <mxCell id="JS7ru937FT7HgsVUrFU_-14" value="" style="edgeStyle=orthogonalEdgeStyle;rounded=0;orthogonalLoop=1;jettySize=auto;html=1;entryX=0;entryY=0.5;entryDx=0;entryDy=0;entryPerimeter=0;fontSize=11;endArrow=none;" edge="1" parent="1" source="JS7ru937FT7HgsVUrFU_-8" target="JS7ru937FT7HgsVUrFU_-13">
          <mxGeometry relative="1" as="geometry">
            <mxPoint x="120" y="160" as="sourcePoint" />
            <mxPoint x="240" y="160" as="targetPoint" />
          </mxGeometry>
        </mxCell>
        <mxCell id="JS7ru937FT7HgsVUrFU_-15" value="" style="shape=message;html=1;whiteSpace=wrap;html=1;outlineConnect=0;fontSize=11;fillColor=#fff2cc;strokeColor=#d6b656;" vertex="1" parent="1">
          <mxGeometry x="450" y="150" width="30" height="20" as="geometry" />
        </mxCell>
        <mxCell id="JS7ru937FT7HgsVUrFU_-16" value="" style="edgeStyle=orthogonalEdgeStyle;rounded=0;orthogonalLoop=1;jettySize=auto;html=1;fontSize=11;endArrow=none;" edge="1" parent="1" source="JS7ru937FT7HgsVUrFU_-2" target="JS7ru937FT7HgsVUrFU_-15">
          <mxGeometry relative="1" as="geometry">
            <mxPoint x="400" y="160" as="sourcePoint" />
            <mxPoint x="520" y="160" as="targetPoint" />
          </mxGeometry>
        </mxCell>
        <mxCell id="JS7ru937FT7HgsVUrFU_-30" style="edgeStyle=orthogonalEdgeStyle;rounded=0;orthogonalLoop=1;jettySize=auto;html=1;exitX=1;exitY=0.5;exitDx=0;exitDy=0;exitPerimeter=0;entryX=0;entryY=0.5;entryDx=0;entryDy=0;fontSize=11;" edge="1" parent="1" source="JS7ru937FT7HgsVUrFU_-18" target="JS7ru937FT7HgsVUrFU_-20">
          <mxGeometry relative="1" as="geometry" />
        </mxCell>
        <mxCell id="JS7ru937FT7HgsVUrFU_-41" style="edgeStyle=orthogonalEdgeStyle;rounded=0;orthogonalLoop=1;jettySize=auto;html=1;entryX=0;entryY=0.5;entryDx=0;entryDy=0;fontSize=11;" edge="1" parent="1" source="JS7ru937FT7HgsVUrFU_-18" target="JS7ru937FT7HgsVUrFU_-33">
          <mxGeometry relative="1" as="geometry" />
        </mxCell>
        <mxCell id="JS7ru937FT7HgsVUrFU_-42" style="edgeStyle=orthogonalEdgeStyle;rounded=0;orthogonalLoop=1;jettySize=auto;html=1;entryX=0;entryY=0.5;entryDx=0;entryDy=0;fontSize=11;" edge="1" parent="1" source="JS7ru937FT7HgsVUrFU_-18" target="JS7ru937FT7HgsVUrFU_-39">
          <mxGeometry relative="1" as="geometry" />
        </mxCell>
        <mxCell id="JS7ru937FT7HgsVUrFU_-18" value="&lt;font style=&quot;font-size: 11px;&quot;&gt;Broker&lt;/font&gt;" style="outlineConnect=0;dashed=0;verticalLabelPosition=bottom;verticalAlign=top;align=center;html=1;shape=mxgraph.aws3.queue;fillColor=#f0a30a;strokeColor=#BD7000;fontColor=#000000;" vertex="1" parent="1">
          <mxGeometry x="240" y="440" width="160" height="80" as="geometry" />
        </mxCell>
        <mxCell id="JS7ru937FT7HgsVUrFU_-19" value="&#xa;&#xa;&#xa;&#xa;&#xa;&#xa;Consumer" style="group;fontSize=11;" vertex="1" connectable="0" parent="1">
          <mxGeometry x="520" y="320" width="80" height="80" as="geometry" />
        </mxCell>
        <mxCell id="JS7ru937FT7HgsVUrFU_-20" value="" style="ellipse;whiteSpace=wrap;html=1;aspect=fixed;fillColor=#cce5ff;strokeColor=#36393d;" vertex="1" parent="JS7ru937FT7HgsVUrFU_-19">
          <mxGeometry width="80" height="80" as="geometry" />
        </mxCell>
        <mxCell id="JS7ru937FT7HgsVUrFU_-21" value="" style="html=1;verticalLabelPosition=bottom;align=center;labelBackgroundColor=#ffffff;verticalAlign=top;strokeWidth=2;strokeColor=#36393d;shadow=0;dashed=0;shape=mxgraph.ios7.icons.settings;fillColor=#eeeeee;" vertex="1" parent="JS7ru937FT7HgsVUrFU_-19">
          <mxGeometry x="17.5" y="17.5" width="45" height="45" as="geometry" />
        </mxCell>
        <mxCell id="JS7ru937FT7HgsVUrFU_-22" value="&#xa;&#xa;&#xa;&#xa;&#xa;&#xa;Producer" style="group;fontSize=11;" vertex="1" connectable="0" parent="1">
          <mxGeometry x="40" y="440" width="80" height="80" as="geometry" />
        </mxCell>
        <mxCell id="JS7ru937FT7HgsVUrFU_-23" value="" style="ellipse;whiteSpace=wrap;html=1;aspect=fixed;fillColor=#66FFB3;strokeColor=#36393d;" vertex="1" parent="JS7ru937FT7HgsVUrFU_-22">
          <mxGeometry width="80" height="80" as="geometry" />
        </mxCell>
        <mxCell id="JS7ru937FT7HgsVUrFU_-24" value="" style="html=1;verticalLabelPosition=bottom;align=center;labelBackgroundColor=#ffffff;verticalAlign=top;strokeWidth=2;strokeColor=#36393d;shadow=0;dashed=0;shape=mxgraph.ios7.icons.settings;fillColor=#eeeeee;" vertex="1" parent="JS7ru937FT7HgsVUrFU_-22">
          <mxGeometry x="17.5" y="17.5" width="45" height="45" as="geometry" />
        </mxCell>
        <mxCell id="JS7ru937FT7HgsVUrFU_-25" style="edgeStyle=orthogonalEdgeStyle;rounded=0;orthogonalLoop=1;jettySize=auto;html=1;entryX=0;entryY=0.5;entryDx=0;entryDy=0;entryPerimeter=0;fontSize=11;startArrow=none;" edge="1" parent="1" source="JS7ru937FT7HgsVUrFU_-26" target="JS7ru937FT7HgsVUrFU_-18">
          <mxGeometry relative="1" as="geometry" />
        </mxCell>
        <mxCell id="JS7ru937FT7HgsVUrFU_-26" value="" style="shape=message;html=1;whiteSpace=wrap;html=1;outlineConnect=0;fontSize=11;fillColor=#fff2cc;strokeColor=#d6b656;" vertex="1" parent="1">
          <mxGeometry x="170" y="470" width="30" height="20" as="geometry" />
        </mxCell>
        <mxCell id="JS7ru937FT7HgsVUrFU_-27" value="" style="edgeStyle=orthogonalEdgeStyle;rounded=0;orthogonalLoop=1;jettySize=auto;html=1;entryX=0;entryY=0.5;entryDx=0;entryDy=0;entryPerimeter=0;fontSize=11;endArrow=none;" edge="1" parent="1" source="JS7ru937FT7HgsVUrFU_-23" target="JS7ru937FT7HgsVUrFU_-26">
          <mxGeometry relative="1" as="geometry">
            <mxPoint x="120" y="480" as="sourcePoint" />
            <mxPoint x="240" y="480" as="targetPoint" />
          </mxGeometry>
        </mxCell>
        <mxCell id="JS7ru937FT7HgsVUrFU_-31" value="" style="shape=message;html=1;whiteSpace=wrap;html=1;outlineConnect=0;fontSize=11;fillColor=#fff2cc;strokeColor=#d6b656;" vertex="1" parent="1">
          <mxGeometry x="445" y="400" width="30" height="20" as="geometry" />
        </mxCell>
        <mxCell id="JS7ru937FT7HgsVUrFU_-32" value="&#xa;&#xa;&#xa;&#xa;&#xa;&#xa;Consumer" style="group;fontSize=11;" vertex="1" connectable="0" parent="1">
          <mxGeometry x="520" y="440" width="80" height="80" as="geometry" />
        </mxCell>
        <mxCell id="JS7ru937FT7HgsVUrFU_-33" value="" style="ellipse;whiteSpace=wrap;html=1;aspect=fixed;fillColor=#cce5ff;strokeColor=#36393d;" vertex="1" parent="JS7ru937FT7HgsVUrFU_-32">
          <mxGeometry width="80" height="80" as="geometry" />
        </mxCell>
        <mxCell id="JS7ru937FT7HgsVUrFU_-34" value="" style="html=1;verticalLabelPosition=bottom;align=center;labelBackgroundColor=#ffffff;verticalAlign=top;strokeWidth=2;strokeColor=#36393d;shadow=0;dashed=0;shape=mxgraph.ios7.icons.settings;fillColor=#eeeeee;" vertex="1" parent="JS7ru937FT7HgsVUrFU_-32">
          <mxGeometry x="17.5" y="17.5" width="45" height="45" as="geometry" />
        </mxCell>
        <mxCell id="JS7ru937FT7HgsVUrFU_-35" value="&#xa;&#xa;&#xa;&#xa;&#xa;&#xa;Consumer" style="group;fontSize=11;" vertex="1" connectable="0" parent="1">
          <mxGeometry x="520" y="320" width="80" height="80" as="geometry" />
        </mxCell>
        <mxCell id="JS7ru937FT7HgsVUrFU_-36" value="" style="ellipse;whiteSpace=wrap;html=1;aspect=fixed;fillColor=#cce5ff;strokeColor=#36393d;" vertex="1" parent="JS7ru937FT7HgsVUrFU_-35">
          <mxGeometry width="80" height="80" as="geometry" />
        </mxCell>
        <mxCell id="JS7ru937FT7HgsVUrFU_-37" value="" style="html=1;verticalLabelPosition=bottom;align=center;labelBackgroundColor=#ffffff;verticalAlign=top;strokeWidth=2;strokeColor=#36393d;shadow=0;dashed=0;shape=mxgraph.ios7.icons.settings;fillColor=#eeeeee;" vertex="1" parent="JS7ru937FT7HgsVUrFU_-35">
          <mxGeometry x="17.5" y="17.5" width="45" height="45" as="geometry" />
        </mxCell>
        <mxCell id="JS7ru937FT7HgsVUrFU_-38" value="&#xa;&#xa;&#xa;&#xa;&#xa;&#xa;Consumer" style="group;fontSize=11;" vertex="1" connectable="0" parent="1">
          <mxGeometry x="520" y="560" width="80" height="80" as="geometry" />
        </mxCell>
        <mxCell id="JS7ru937FT7HgsVUrFU_-39" value="" style="ellipse;whiteSpace=wrap;html=1;aspect=fixed;fillColor=#cce5ff;strokeColor=#36393d;" vertex="1" parent="JS7ru937FT7HgsVUrFU_-38">
          <mxGeometry width="80" height="80" as="geometry" />
        </mxCell>
        <mxCell id="JS7ru937FT7HgsVUrFU_-40" value="" style="html=1;verticalLabelPosition=bottom;align=center;labelBackgroundColor=#ffffff;verticalAlign=top;strokeWidth=2;strokeColor=#36393d;shadow=0;dashed=0;shape=mxgraph.ios7.icons.settings;fillColor=#eeeeee;" vertex="1" parent="JS7ru937FT7HgsVUrFU_-38">
          <mxGeometry x="17.5" y="17.5" width="45" height="45" as="geometry" />
        </mxCell>
        <mxCell id="JS7ru937FT7HgsVUrFU_-101" style="edgeStyle=orthogonalEdgeStyle;rounded=0;orthogonalLoop=1;jettySize=auto;html=1;entryX=0;entryY=0.5;entryDx=0;entryDy=0;fontSize=11;" edge="1" parent="1" source="JS7ru937FT7HgsVUrFU_-46" target="JS7ru937FT7HgsVUrFU_-64">
          <mxGeometry relative="1" as="geometry">
            <Array as="points">
              <mxPoint x="420" y="920" />
              <mxPoint x="420" y="990" />
              <mxPoint x="500" y="990" />
              <mxPoint x="500" y="1040" />
            </Array>
          </mxGeometry>
        </mxCell>
        <mxCell id="JS7ru937FT7HgsVUrFU_-102" style="edgeStyle=orthogonalEdgeStyle;rounded=0;orthogonalLoop=1;jettySize=auto;html=1;entryX=0;entryY=0.5;entryDx=0;entryDy=0;fontSize=11;" edge="1" parent="1" source="JS7ru937FT7HgsVUrFU_-46" target="JS7ru937FT7HgsVUrFU_-58">
          <mxGeometry relative="1" as="geometry" />
        </mxCell>
        <mxCell id="JS7ru937FT7HgsVUrFU_-46" value="&lt;font style=&quot;font-size: 11px;&quot;&gt;Broker&lt;/font&gt;" style="outlineConnect=0;dashed=0;verticalLabelPosition=bottom;verticalAlign=top;align=center;html=1;shape=mxgraph.aws3.queue;fillColor=#f0a30a;strokeColor=#BD7000;fontColor=#000000;" vertex="1" parent="1">
          <mxGeometry x="240" y="880" width="160" height="80" as="geometry" />
        </mxCell>
        <mxCell id="JS7ru937FT7HgsVUrFU_-47" value="&#xa;&#xa;&#xa;&#xa;&#xa;&#xa;Consumer" style="group;fontSize=11;" vertex="1" connectable="0" parent="1">
          <mxGeometry x="520" y="760" width="80" height="80" as="geometry" />
        </mxCell>
        <mxCell id="JS7ru937FT7HgsVUrFU_-48" value="" style="ellipse;whiteSpace=wrap;html=1;aspect=fixed;fillColor=#cce5ff;strokeColor=#36393d;" vertex="1" parent="JS7ru937FT7HgsVUrFU_-47">
          <mxGeometry width="80" height="80" as="geometry" />
        </mxCell>
        <mxCell id="JS7ru937FT7HgsVUrFU_-49" value="" style="html=1;verticalLabelPosition=bottom;align=center;labelBackgroundColor=#ffffff;verticalAlign=top;strokeWidth=2;strokeColor=#36393d;shadow=0;dashed=0;shape=mxgraph.ios7.icons.settings;fillColor=#eeeeee;" vertex="1" parent="JS7ru937FT7HgsVUrFU_-47">
          <mxGeometry x="17.5" y="17.5" width="45" height="45" as="geometry" />
        </mxCell>
        <mxCell id="JS7ru937FT7HgsVUrFU_-50" value="&#xa;&#xa;&#xa;&#xa;&#xa;&#xa;Producer" style="group;fontSize=11;" vertex="1" connectable="0" parent="1">
          <mxGeometry x="40" y="760" width="80" height="80" as="geometry" />
        </mxCell>
        <mxCell id="JS7ru937FT7HgsVUrFU_-51" value="" style="ellipse;whiteSpace=wrap;html=1;aspect=fixed;fillColor=#66FFB3;strokeColor=#36393d;" vertex="1" parent="JS7ru937FT7HgsVUrFU_-50">
          <mxGeometry width="80" height="80" as="geometry" />
        </mxCell>
        <mxCell id="JS7ru937FT7HgsVUrFU_-52" value="" style="html=1;verticalLabelPosition=bottom;align=center;labelBackgroundColor=#ffffff;verticalAlign=top;strokeWidth=2;strokeColor=#36393d;shadow=0;dashed=0;shape=mxgraph.ios7.icons.settings;fillColor=#eeeeee;" vertex="1" parent="JS7ru937FT7HgsVUrFU_-50">
          <mxGeometry x="17.5" y="17.5" width="45" height="45" as="geometry" />
        </mxCell>
        <mxCell id="JS7ru937FT7HgsVUrFU_-53" style="edgeStyle=orthogonalEdgeStyle;rounded=0;orthogonalLoop=1;jettySize=auto;html=1;entryX=0;entryY=0.5;entryDx=0;entryDy=0;entryPerimeter=0;fontSize=11;startArrow=none;" edge="1" parent="1" source="JS7ru937FT7HgsVUrFU_-54" target="JS7ru937FT7HgsVUrFU_-46">
          <mxGeometry relative="1" as="geometry" />
        </mxCell>
        <mxCell id="JS7ru937FT7HgsVUrFU_-54" value="" style="shape=message;html=1;whiteSpace=wrap;html=1;outlineConnect=0;fontSize=11;fillColor=#d5e8d4;strokeColor=#82b366;" vertex="1" parent="1">
          <mxGeometry x="170" y="840" width="30" height="20" as="geometry" />
        </mxCell>
        <mxCell id="JS7ru937FT7HgsVUrFU_-55" value="" style="edgeStyle=orthogonalEdgeStyle;rounded=0;orthogonalLoop=1;jettySize=auto;html=1;entryX=0;entryY=0.5;entryDx=0;entryDy=0;entryPerimeter=0;fontSize=11;endArrow=none;" edge="1" parent="1" source="JS7ru937FT7HgsVUrFU_-51" target="JS7ru937FT7HgsVUrFU_-54">
          <mxGeometry relative="1" as="geometry">
            <mxPoint x="120" y="920" as="sourcePoint" />
            <mxPoint x="240" y="920" as="targetPoint" />
          </mxGeometry>
        </mxCell>
        <mxCell id="JS7ru937FT7HgsVUrFU_-57" value="&#xa;&#xa;&#xa;&#xa;&#xa;&#xa;Consumer" style="group;fontSize=11;" vertex="1" connectable="0" parent="1">
          <mxGeometry x="520" y="880" width="80" height="80" as="geometry" />
        </mxCell>
        <mxCell id="JS7ru937FT7HgsVUrFU_-58" value="" style="ellipse;whiteSpace=wrap;html=1;aspect=fixed;fillColor=#cce5ff;strokeColor=#36393d;" vertex="1" parent="JS7ru937FT7HgsVUrFU_-57">
          <mxGeometry width="80" height="80" as="geometry" />
        </mxCell>
        <mxCell id="JS7ru937FT7HgsVUrFU_-59" value="" style="html=1;verticalLabelPosition=bottom;align=center;labelBackgroundColor=#ffffff;verticalAlign=top;strokeWidth=2;strokeColor=#36393d;shadow=0;dashed=0;shape=mxgraph.ios7.icons.settings;fillColor=#eeeeee;" vertex="1" parent="JS7ru937FT7HgsVUrFU_-57">
          <mxGeometry x="17.5" y="17.5" width="45" height="45" as="geometry" />
        </mxCell>
        <mxCell id="JS7ru937FT7HgsVUrFU_-60" value="&#xa;&#xa;&#xa;&#xa;&#xa;&#xa;Consumer" style="group;fontSize=11;" vertex="1" connectable="0" parent="1">
          <mxGeometry x="520" y="760" width="80" height="80" as="geometry" />
        </mxCell>
        <mxCell id="JS7ru937FT7HgsVUrFU_-61" value="" style="ellipse;whiteSpace=wrap;html=1;aspect=fixed;fillColor=#cce5ff;strokeColor=#36393d;" vertex="1" parent="JS7ru937FT7HgsVUrFU_-60">
          <mxGeometry width="80" height="80" as="geometry" />
        </mxCell>
        <mxCell id="JS7ru937FT7HgsVUrFU_-62" value="" style="html=1;verticalLabelPosition=bottom;align=center;labelBackgroundColor=#ffffff;verticalAlign=top;strokeWidth=2;strokeColor=#36393d;shadow=0;dashed=0;shape=mxgraph.ios7.icons.settings;fillColor=#eeeeee;" vertex="1" parent="JS7ru937FT7HgsVUrFU_-60">
          <mxGeometry x="17.5" y="17.5" width="45" height="45" as="geometry" />
        </mxCell>
        <mxCell id="JS7ru937FT7HgsVUrFU_-63" value="&#xa;&#xa;&#xa;&#xa;&#xa;&#xa;Consumer" style="group;fontSize=11;" vertex="1" connectable="0" parent="1">
          <mxGeometry x="520" y="1000" width="80" height="80" as="geometry" />
        </mxCell>
        <mxCell id="JS7ru937FT7HgsVUrFU_-64" value="" style="ellipse;whiteSpace=wrap;html=1;aspect=fixed;fillColor=#cce5ff;strokeColor=#36393d;" vertex="1" parent="JS7ru937FT7HgsVUrFU_-63">
          <mxGeometry width="80" height="80" as="geometry" />
        </mxCell>
        <mxCell id="JS7ru937FT7HgsVUrFU_-65" value="" style="html=1;verticalLabelPosition=bottom;align=center;labelBackgroundColor=#ffffff;verticalAlign=top;strokeWidth=2;strokeColor=#36393d;shadow=0;dashed=0;shape=mxgraph.ios7.icons.settings;fillColor=#eeeeee;" vertex="1" parent="JS7ru937FT7HgsVUrFU_-63">
          <mxGeometry x="17.5" y="17.5" width="45" height="45" as="geometry" />
        </mxCell>
        <mxCell id="JS7ru937FT7HgsVUrFU_-72" value="&#xa;&#xa;&#xa;&#xa;&#xa;&#xa;Producer" style="group;fontSize=11;" vertex="1" connectable="0" parent="1">
          <mxGeometry x="40" width="80" height="80" as="geometry" />
        </mxCell>
        <mxCell id="JS7ru937FT7HgsVUrFU_-73" value="" style="ellipse;whiteSpace=wrap;html=1;aspect=fixed;fillColor=#66FFB3;strokeColor=#36393d;" vertex="1" parent="JS7ru937FT7HgsVUrFU_-72">
          <mxGeometry width="80" height="80" as="geometry" />
        </mxCell>
        <mxCell id="JS7ru937FT7HgsVUrFU_-74" value="" style="html=1;verticalLabelPosition=bottom;align=center;labelBackgroundColor=#ffffff;verticalAlign=top;strokeWidth=2;strokeColor=#36393d;shadow=0;dashed=0;shape=mxgraph.ios7.icons.settings;fillColor=#eeeeee;" vertex="1" parent="JS7ru937FT7HgsVUrFU_-72">
          <mxGeometry x="17.5" y="17.5" width="45" height="45" as="geometry" />
        </mxCell>
        <mxCell id="JS7ru937FT7HgsVUrFU_-75" value="&#xa;&#xa;&#xa;&#xa;&#xa;&#xa;Consumer" style="group;fontSize=11;" vertex="1" connectable="0" parent="1">
          <mxGeometry x="160" width="80" height="80" as="geometry" />
        </mxCell>
        <mxCell id="JS7ru937FT7HgsVUrFU_-76" value="" style="ellipse;whiteSpace=wrap;html=1;aspect=fixed;fillColor=#cce5ff;strokeColor=#36393d;" vertex="1" parent="JS7ru937FT7HgsVUrFU_-75">
          <mxGeometry width="80" height="80" as="geometry" />
        </mxCell>
        <mxCell id="JS7ru937FT7HgsVUrFU_-77" value="" style="html=1;verticalLabelPosition=bottom;align=center;labelBackgroundColor=#ffffff;verticalAlign=top;strokeWidth=2;strokeColor=#36393d;shadow=0;dashed=0;shape=mxgraph.ios7.icons.settings;fillColor=#eeeeee;" vertex="1" parent="JS7ru937FT7HgsVUrFU_-75">
          <mxGeometry x="17.5" y="17.5" width="45" height="45" as="geometry" />
        </mxCell>
        <mxCell id="JS7ru937FT7HgsVUrFU_-78" value="&#xa;&#xa;&#xa;&#xa;&#xa;&#xa;Producer" style="group;fontSize=11;" vertex="1" connectable="0" parent="1">
          <mxGeometry x="40" y="880" width="80" height="80" as="geometry" />
        </mxCell>
        <mxCell id="JS7ru937FT7HgsVUrFU_-79" value="" style="ellipse;whiteSpace=wrap;html=1;aspect=fixed;fillColor=#66FFB3;strokeColor=#36393d;" vertex="1" parent="JS7ru937FT7HgsVUrFU_-78">
          <mxGeometry width="80" height="80" as="geometry" />
        </mxCell>
        <mxCell id="JS7ru937FT7HgsVUrFU_-80" value="" style="html=1;verticalLabelPosition=bottom;align=center;labelBackgroundColor=#ffffff;verticalAlign=top;strokeWidth=2;strokeColor=#36393d;shadow=0;dashed=0;shape=mxgraph.ios7.icons.settings;fillColor=#eeeeee;" vertex="1" parent="JS7ru937FT7HgsVUrFU_-78">
          <mxGeometry x="17.5" y="17.5" width="45" height="45" as="geometry" />
        </mxCell>
        <mxCell id="JS7ru937FT7HgsVUrFU_-81" value="&#xa;&#xa;&#xa;&#xa;&#xa;&#xa;Producer" style="group;fontSize=11;" vertex="1" connectable="0" parent="1">
          <mxGeometry x="40" y="1000" width="80" height="80" as="geometry" />
        </mxCell>
        <mxCell id="JS7ru937FT7HgsVUrFU_-82" value="" style="ellipse;whiteSpace=wrap;html=1;aspect=fixed;fillColor=#66FFB3;strokeColor=#36393d;" vertex="1" parent="JS7ru937FT7HgsVUrFU_-81">
          <mxGeometry width="80" height="80" as="geometry" />
        </mxCell>
        <mxCell id="JS7ru937FT7HgsVUrFU_-83" value="" style="html=1;verticalLabelPosition=bottom;align=center;labelBackgroundColor=#ffffff;verticalAlign=top;strokeWidth=2;strokeColor=#36393d;shadow=0;dashed=0;shape=mxgraph.ios7.icons.settings;fillColor=#eeeeee;" vertex="1" parent="JS7ru937FT7HgsVUrFU_-81">
          <mxGeometry x="17.5" y="17.5" width="45" height="45" as="geometry" />
        </mxCell>
        <mxCell id="JS7ru937FT7HgsVUrFU_-84" style="edgeStyle=orthogonalEdgeStyle;rounded=0;orthogonalLoop=1;jettySize=auto;html=1;fontSize=11;startArrow=none;" edge="1" parent="1" source="JS7ru937FT7HgsVUrFU_-86" target="JS7ru937FT7HgsVUrFU_-46">
          <mxGeometry relative="1" as="geometry" />
        </mxCell>
        <mxCell id="JS7ru937FT7HgsVUrFU_-85" style="edgeStyle=orthogonalEdgeStyle;rounded=0;orthogonalLoop=1;jettySize=auto;html=1;entryX=0;entryY=0.5;entryDx=0;entryDy=0;entryPerimeter=0;fontSize=11;startArrow=none;" edge="1" parent="1" source="JS7ru937FT7HgsVUrFU_-88" target="JS7ru937FT7HgsVUrFU_-46">
          <mxGeometry relative="1" as="geometry" />
        </mxCell>
        <mxCell id="JS7ru937FT7HgsVUrFU_-86" value="" style="shape=message;html=1;whiteSpace=wrap;html=1;outlineConnect=0;fontSize=11;fillColor=#fff2cc;strokeColor=#d6b656;" vertex="1" parent="1">
          <mxGeometry x="147.5" y="910" width="30" height="20" as="geometry" />
        </mxCell>
        <mxCell id="JS7ru937FT7HgsVUrFU_-87" value="" style="edgeStyle=orthogonalEdgeStyle;rounded=0;orthogonalLoop=1;jettySize=auto;html=1;fontSize=11;endArrow=none;" edge="1" parent="1" source="JS7ru937FT7HgsVUrFU_-79" target="JS7ru937FT7HgsVUrFU_-86">
          <mxGeometry relative="1" as="geometry">
            <mxPoint x="120" y="920" as="sourcePoint" />
            <mxPoint x="240" y="920" as="targetPoint" />
          </mxGeometry>
        </mxCell>
        <mxCell id="JS7ru937FT7HgsVUrFU_-88" value="" style="shape=message;html=1;whiteSpace=wrap;html=1;outlineConnect=0;fontSize=11;fillColor=#e1d5e7;strokeColor=#9673a6;" vertex="1" parent="1">
          <mxGeometry x="170" y="980" width="30" height="20" as="geometry" />
        </mxCell>
        <mxCell id="JS7ru937FT7HgsVUrFU_-89" value="" style="edgeStyle=orthogonalEdgeStyle;rounded=0;orthogonalLoop=1;jettySize=auto;html=1;entryX=0;entryY=0.5;entryDx=0;entryDy=0;entryPerimeter=0;fontSize=11;endArrow=none;" edge="1" parent="1" source="JS7ru937FT7HgsVUrFU_-82" target="JS7ru937FT7HgsVUrFU_-88">
          <mxGeometry relative="1" as="geometry">
            <mxPoint x="120" y="1040" as="sourcePoint" />
            <mxPoint x="240" y="920" as="targetPoint" />
          </mxGeometry>
        </mxCell>
        <mxCell id="JS7ru937FT7HgsVUrFU_-92" value="" style="group" vertex="1" connectable="0" parent="1">
          <mxGeometry x="440" y="846" width="40" height="28" as="geometry" />
        </mxCell>
        <mxCell id="JS7ru937FT7HgsVUrFU_-91" value="" style="shape=message;html=1;whiteSpace=wrap;html=1;outlineConnect=0;fontSize=11;fillColor=#e1d5e7;strokeColor=#9673a6;" vertex="1" parent="JS7ru937FT7HgsVUrFU_-92">
          <mxGeometry y="8" width="30" height="20" as="geometry" />
        </mxCell>
        <mxCell id="JS7ru937FT7HgsVUrFU_-56" value="" style="shape=message;html=1;whiteSpace=wrap;html=1;outlineConnect=0;fontSize=11;fillColor=#fff2cc;strokeColor=#d6b656;" vertex="1" parent="JS7ru937FT7HgsVUrFU_-92">
          <mxGeometry x="5" y="4" width="30" height="20" as="geometry" />
        </mxCell>
        <mxCell id="JS7ru937FT7HgsVUrFU_-90" value="" style="shape=message;html=1;whiteSpace=wrap;html=1;outlineConnect=0;fontSize=11;fillColor=#d5e8d4;strokeColor=#82b366;" vertex="1" parent="JS7ru937FT7HgsVUrFU_-92">
          <mxGeometry x="10" width="30" height="20" as="geometry" />
        </mxCell>
        <mxCell id="JS7ru937FT7HgsVUrFU_-93" value="" style="group" vertex="1" connectable="0" parent="1">
          <mxGeometry x="450" y="906" width="40" height="28" as="geometry" />
        </mxCell>
        <mxCell id="JS7ru937FT7HgsVUrFU_-94" value="" style="shape=message;html=1;whiteSpace=wrap;html=1;outlineConnect=0;fontSize=11;fillColor=#e1d5e7;strokeColor=#9673a6;" vertex="1" parent="JS7ru937FT7HgsVUrFU_-93">
          <mxGeometry y="8" width="30" height="20" as="geometry" />
        </mxCell>
        <mxCell id="JS7ru937FT7HgsVUrFU_-95" value="" style="shape=message;html=1;whiteSpace=wrap;html=1;outlineConnect=0;fontSize=11;fillColor=#fff2cc;strokeColor=#d6b656;" vertex="1" parent="JS7ru937FT7HgsVUrFU_-93">
          <mxGeometry x="5" y="4" width="30" height="20" as="geometry" />
        </mxCell>
        <mxCell id="JS7ru937FT7HgsVUrFU_-96" value="" style="shape=message;html=1;whiteSpace=wrap;html=1;outlineConnect=0;fontSize=11;fillColor=#d5e8d4;strokeColor=#82b366;" vertex="1" parent="JS7ru937FT7HgsVUrFU_-93">
          <mxGeometry x="10" width="30" height="20" as="geometry" />
        </mxCell>
        <mxCell id="JS7ru937FT7HgsVUrFU_-97" value="" style="group" vertex="1" connectable="0" parent="1">
          <mxGeometry x="445" y="976" width="40" height="28" as="geometry" />
        </mxCell>
        <mxCell id="JS7ru937FT7HgsVUrFU_-98" value="" style="shape=message;html=1;whiteSpace=wrap;html=1;outlineConnect=0;fontSize=11;fillColor=#e1d5e7;strokeColor=#9673a6;" vertex="1" parent="JS7ru937FT7HgsVUrFU_-97">
          <mxGeometry y="8" width="30" height="20" as="geometry" />
        </mxCell>
        <mxCell id="JS7ru937FT7HgsVUrFU_-99" value="" style="shape=message;html=1;whiteSpace=wrap;html=1;outlineConnect=0;fontSize=11;fillColor=#fff2cc;strokeColor=#d6b656;" vertex="1" parent="JS7ru937FT7HgsVUrFU_-97">
          <mxGeometry x="5" y="4" width="30" height="20" as="geometry" />
        </mxCell>
        <mxCell id="JS7ru937FT7HgsVUrFU_-100" value="" style="shape=message;html=1;whiteSpace=wrap;html=1;outlineConnect=0;fontSize=11;fillColor=#d5e8d4;strokeColor=#82b366;" vertex="1" parent="JS7ru937FT7HgsVUrFU_-97">
          <mxGeometry x="10" width="30" height="20" as="geometry" />
        </mxCell>
        <mxCell id="JS7ru937FT7HgsVUrFU_-103" value="" style="edgeStyle=orthogonalEdgeStyle;rounded=0;orthogonalLoop=1;jettySize=auto;html=1;exitX=1;exitY=0.5;exitDx=0;exitDy=0;exitPerimeter=0;entryX=0;entryY=0.5;entryDx=0;entryDy=0;fontSize=11;endArrow=none;" edge="1" parent="1" source="JS7ru937FT7HgsVUrFU_-107">
          <mxGeometry relative="1" as="geometry">
            <mxPoint x="400" y="1320" as="sourcePoint" />
            <mxPoint x="445" y="1260" as="targetPoint" />
            <Array as="points">
              <mxPoint x="420" y="1320" />
              <mxPoint x="420" y="1260" />
            </Array>
          </mxGeometry>
        </mxCell>
        <mxCell id="JS7ru937FT7HgsVUrFU_-104" style="edgeStyle=orthogonalEdgeStyle;rounded=0;orthogonalLoop=1;jettySize=auto;html=1;exitX=1;exitY=0.5;exitDx=0;exitDy=0;exitPerimeter=0;entryX=0;entryY=0.5;entryDx=0;entryDy=0;fontSize=11;startArrow=none;" edge="1" parent="1" target="JS7ru937FT7HgsVUrFU_-109">
          <mxGeometry relative="1" as="geometry">
            <Array as="points">
              <mxPoint x="498" y="1260" />
              <mxPoint x="498" y="1200" />
            </Array>
            <mxPoint x="475" y="1260" as="sourcePoint" />
          </mxGeometry>
        </mxCell>
        <mxCell id="JS7ru937FT7HgsVUrFU_-105" style="edgeStyle=orthogonalEdgeStyle;rounded=0;orthogonalLoop=1;jettySize=auto;html=1;entryX=0;entryY=0.5;entryDx=0;entryDy=0;fontSize=11;" edge="1" parent="1" source="JS7ru937FT7HgsVUrFU_-107" target="JS7ru937FT7HgsVUrFU_-124">
          <mxGeometry relative="1" as="geometry">
            <Array as="points">
              <mxPoint x="420" y="1320" />
              <mxPoint x="420" y="1390" />
              <mxPoint x="500" y="1390" />
              <mxPoint x="500" y="1440" />
            </Array>
          </mxGeometry>
        </mxCell>
        <mxCell id="JS7ru937FT7HgsVUrFU_-106" style="edgeStyle=orthogonalEdgeStyle;rounded=0;orthogonalLoop=1;jettySize=auto;html=1;entryX=0;entryY=0.5;entryDx=0;entryDy=0;fontSize=11;" edge="1" parent="1" source="JS7ru937FT7HgsVUrFU_-107" target="JS7ru937FT7HgsVUrFU_-118">
          <mxGeometry relative="1" as="geometry" />
        </mxCell>
        <mxCell id="JS7ru937FT7HgsVUrFU_-107" value="&lt;font style=&quot;font-size: 11px;&quot;&gt;Broker&lt;/font&gt;" style="outlineConnect=0;dashed=0;verticalLabelPosition=bottom;verticalAlign=top;align=center;html=1;shape=mxgraph.aws3.queue;fillColor=#f0a30a;strokeColor=#BD7000;fontColor=#000000;" vertex="1" parent="1">
          <mxGeometry x="240" y="1280" width="160" height="80" as="geometry" />
        </mxCell>
        <mxCell id="JS7ru937FT7HgsVUrFU_-108" value="&#xa;&#xa;&#xa;&#xa;&#xa;&#xa;Consumer" style="group;fontSize=11;" vertex="1" connectable="0" parent="1">
          <mxGeometry x="520" y="1160" width="80" height="80" as="geometry" />
        </mxCell>
        <mxCell id="JS7ru937FT7HgsVUrFU_-109" value="" style="ellipse;whiteSpace=wrap;html=1;aspect=fixed;fillColor=#cce5ff;strokeColor=#36393d;" vertex="1" parent="JS7ru937FT7HgsVUrFU_-108">
          <mxGeometry width="80" height="80" as="geometry" />
        </mxCell>
        <mxCell id="JS7ru937FT7HgsVUrFU_-110" value="" style="html=1;verticalLabelPosition=bottom;align=center;labelBackgroundColor=#ffffff;verticalAlign=top;strokeWidth=2;strokeColor=#36393d;shadow=0;dashed=0;shape=mxgraph.ios7.icons.settings;fillColor=#eeeeee;" vertex="1" parent="JS7ru937FT7HgsVUrFU_-108">
          <mxGeometry x="17.5" y="17.5" width="45" height="45" as="geometry" />
        </mxCell>
        <mxCell id="JS7ru937FT7HgsVUrFU_-111" value="&#xa;&#xa;&#xa;&#xa;&#xa;&#xa;Producer" style="group;fontSize=11;" vertex="1" connectable="0" parent="1">
          <mxGeometry x="40" y="1160" width="80" height="80" as="geometry" />
        </mxCell>
        <mxCell id="JS7ru937FT7HgsVUrFU_-112" value="" style="ellipse;whiteSpace=wrap;html=1;aspect=fixed;fillColor=#66FFB3;strokeColor=#36393d;" vertex="1" parent="JS7ru937FT7HgsVUrFU_-111">
          <mxGeometry width="80" height="80" as="geometry" />
        </mxCell>
        <mxCell id="JS7ru937FT7HgsVUrFU_-113" value="" style="html=1;verticalLabelPosition=bottom;align=center;labelBackgroundColor=#ffffff;verticalAlign=top;strokeWidth=2;strokeColor=#36393d;shadow=0;dashed=0;shape=mxgraph.ios7.icons.settings;fillColor=#eeeeee;" vertex="1" parent="JS7ru937FT7HgsVUrFU_-111">
          <mxGeometry x="17.5" y="17.5" width="45" height="45" as="geometry" />
        </mxCell>
        <mxCell id="JS7ru937FT7HgsVUrFU_-114" style="edgeStyle=orthogonalEdgeStyle;rounded=0;orthogonalLoop=1;jettySize=auto;html=1;entryX=0;entryY=0.5;entryDx=0;entryDy=0;entryPerimeter=0;fontSize=11;startArrow=none;" edge="1" parent="1" source="JS7ru937FT7HgsVUrFU_-115" target="JS7ru937FT7HgsVUrFU_-107">
          <mxGeometry relative="1" as="geometry" />
        </mxCell>
        <mxCell id="JS7ru937FT7HgsVUrFU_-115" value="" style="shape=message;html=1;whiteSpace=wrap;html=1;outlineConnect=0;fontSize=11;fillColor=#d5e8d4;strokeColor=#82b366;" vertex="1" parent="1">
          <mxGeometry x="170" y="1240" width="30" height="20" as="geometry" />
        </mxCell>
        <mxCell id="JS7ru937FT7HgsVUrFU_-116" value="" style="edgeStyle=orthogonalEdgeStyle;rounded=0;orthogonalLoop=1;jettySize=auto;html=1;entryX=0;entryY=0.5;entryDx=0;entryDy=0;entryPerimeter=0;fontSize=11;endArrow=none;" edge="1" parent="1" source="JS7ru937FT7HgsVUrFU_-112" target="JS7ru937FT7HgsVUrFU_-115">
          <mxGeometry relative="1" as="geometry">
            <mxPoint x="120" y="1320" as="sourcePoint" />
            <mxPoint x="240" y="1320" as="targetPoint" />
          </mxGeometry>
        </mxCell>
        <mxCell id="JS7ru937FT7HgsVUrFU_-117" value="&#xa;&#xa;&#xa;&#xa;&#xa;&#xa;Consumer" style="group;fontSize=11;" vertex="1" connectable="0" parent="1">
          <mxGeometry x="520" y="1280" width="80" height="80" as="geometry" />
        </mxCell>
        <mxCell id="JS7ru937FT7HgsVUrFU_-118" value="" style="ellipse;whiteSpace=wrap;html=1;aspect=fixed;fillColor=#cce5ff;strokeColor=#36393d;" vertex="1" parent="JS7ru937FT7HgsVUrFU_-117">
          <mxGeometry width="80" height="80" as="geometry" />
        </mxCell>
        <mxCell id="JS7ru937FT7HgsVUrFU_-119" value="" style="html=1;verticalLabelPosition=bottom;align=center;labelBackgroundColor=#ffffff;verticalAlign=top;strokeWidth=2;strokeColor=#36393d;shadow=0;dashed=0;shape=mxgraph.ios7.icons.settings;fillColor=#eeeeee;" vertex="1" parent="JS7ru937FT7HgsVUrFU_-117">
          <mxGeometry x="17.5" y="17.5" width="45" height="45" as="geometry" />
        </mxCell>
        <mxCell id="JS7ru937FT7HgsVUrFU_-120" value="&#xa;&#xa;&#xa;&#xa;&#xa;&#xa;Consumer" style="group;fontSize=11;" vertex="1" connectable="0" parent="1">
          <mxGeometry x="520" y="1160" width="80" height="80" as="geometry" />
        </mxCell>
        <mxCell id="JS7ru937FT7HgsVUrFU_-121" value="" style="ellipse;whiteSpace=wrap;html=1;aspect=fixed;fillColor=#cce5ff;strokeColor=#36393d;" vertex="1" parent="JS7ru937FT7HgsVUrFU_-120">
          <mxGeometry width="80" height="80" as="geometry" />
        </mxCell>
        <mxCell id="JS7ru937FT7HgsVUrFU_-122" value="" style="html=1;verticalLabelPosition=bottom;align=center;labelBackgroundColor=#ffffff;verticalAlign=top;strokeWidth=2;strokeColor=#36393d;shadow=0;dashed=0;shape=mxgraph.ios7.icons.settings;fillColor=#eeeeee;" vertex="1" parent="JS7ru937FT7HgsVUrFU_-120">
          <mxGeometry x="17.5" y="17.5" width="45" height="45" as="geometry" />
        </mxCell>
        <mxCell id="JS7ru937FT7HgsVUrFU_-123" value="&#xa;&#xa;&#xa;&#xa;&#xa;&#xa;Consumer" style="group;fontSize=11;" vertex="1" connectable="0" parent="1">
          <mxGeometry x="520" y="1400" width="80" height="80" as="geometry" />
        </mxCell>
        <mxCell id="JS7ru937FT7HgsVUrFU_-124" value="" style="ellipse;whiteSpace=wrap;html=1;aspect=fixed;fillColor=#cce5ff;strokeColor=#36393d;" vertex="1" parent="JS7ru937FT7HgsVUrFU_-123">
          <mxGeometry width="80" height="80" as="geometry" />
        </mxCell>
        <mxCell id="JS7ru937FT7HgsVUrFU_-125" value="" style="html=1;verticalLabelPosition=bottom;align=center;labelBackgroundColor=#ffffff;verticalAlign=top;strokeWidth=2;strokeColor=#36393d;shadow=0;dashed=0;shape=mxgraph.ios7.icons.settings;fillColor=#eeeeee;" vertex="1" parent="JS7ru937FT7HgsVUrFU_-123">
          <mxGeometry x="17.5" y="17.5" width="45" height="45" as="geometry" />
        </mxCell>
        <mxCell id="JS7ru937FT7HgsVUrFU_-126" value="&#xa;&#xa;&#xa;&#xa;&#xa;&#xa;Producer" style="group;fontSize=11;" vertex="1" connectable="0" parent="1">
          <mxGeometry x="40" y="1280" width="80" height="80" as="geometry" />
        </mxCell>
        <mxCell id="JS7ru937FT7HgsVUrFU_-127" value="" style="ellipse;whiteSpace=wrap;html=1;aspect=fixed;fillColor=#66FFB3;strokeColor=#36393d;" vertex="1" parent="JS7ru937FT7HgsVUrFU_-126">
          <mxGeometry width="80" height="80" as="geometry" />
        </mxCell>
        <mxCell id="JS7ru937FT7HgsVUrFU_-128" value="" style="html=1;verticalLabelPosition=bottom;align=center;labelBackgroundColor=#ffffff;verticalAlign=top;strokeWidth=2;strokeColor=#36393d;shadow=0;dashed=0;shape=mxgraph.ios7.icons.settings;fillColor=#eeeeee;" vertex="1" parent="JS7ru937FT7HgsVUrFU_-126">
          <mxGeometry x="17.5" y="17.5" width="45" height="45" as="geometry" />
        </mxCell>
        <mxCell id="JS7ru937FT7HgsVUrFU_-129" value="&#xa;&#xa;&#xa;&#xa;&#xa;&#xa;Producer" style="group;fontSize=11;" vertex="1" connectable="0" parent="1">
          <mxGeometry x="40" y="1400" width="80" height="80" as="geometry" />
        </mxCell>
        <mxCell id="JS7ru937FT7HgsVUrFU_-130" value="" style="ellipse;whiteSpace=wrap;html=1;aspect=fixed;fillColor=#66FFB3;strokeColor=#36393d;" vertex="1" parent="JS7ru937FT7HgsVUrFU_-129">
          <mxGeometry width="80" height="80" as="geometry" />
        </mxCell>
        <mxCell id="JS7ru937FT7HgsVUrFU_-131" value="" style="html=1;verticalLabelPosition=bottom;align=center;labelBackgroundColor=#ffffff;verticalAlign=top;strokeWidth=2;strokeColor=#36393d;shadow=0;dashed=0;shape=mxgraph.ios7.icons.settings;fillColor=#eeeeee;" vertex="1" parent="JS7ru937FT7HgsVUrFU_-129">
          <mxGeometry x="17.5" y="17.5" width="45" height="45" as="geometry" />
        </mxCell>
        <mxCell id="JS7ru937FT7HgsVUrFU_-132" style="edgeStyle=orthogonalEdgeStyle;rounded=0;orthogonalLoop=1;jettySize=auto;html=1;fontSize=11;startArrow=none;" edge="1" parent="1" source="JS7ru937FT7HgsVUrFU_-134" target="JS7ru937FT7HgsVUrFU_-107">
          <mxGeometry relative="1" as="geometry" />
        </mxCell>
        <mxCell id="JS7ru937FT7HgsVUrFU_-133" style="edgeStyle=orthogonalEdgeStyle;rounded=0;orthogonalLoop=1;jettySize=auto;html=1;entryX=0;entryY=0.5;entryDx=0;entryDy=0;entryPerimeter=0;fontSize=11;startArrow=none;" edge="1" parent="1" source="JS7ru937FT7HgsVUrFU_-136" target="JS7ru937FT7HgsVUrFU_-107">
          <mxGeometry relative="1" as="geometry" />
        </mxCell>
        <mxCell id="JS7ru937FT7HgsVUrFU_-134" value="" style="shape=message;html=1;whiteSpace=wrap;html=1;outlineConnect=0;fontSize=11;fillColor=#fff2cc;strokeColor=#d6b656;" vertex="1" parent="1">
          <mxGeometry x="147.5" y="1310" width="30" height="20" as="geometry" />
        </mxCell>
        <mxCell id="JS7ru937FT7HgsVUrFU_-135" value="" style="edgeStyle=orthogonalEdgeStyle;rounded=0;orthogonalLoop=1;jettySize=auto;html=1;fontSize=11;endArrow=none;" edge="1" parent="1" source="JS7ru937FT7HgsVUrFU_-127" target="JS7ru937FT7HgsVUrFU_-134">
          <mxGeometry relative="1" as="geometry">
            <mxPoint x="120" y="1320" as="sourcePoint" />
            <mxPoint x="240" y="1320" as="targetPoint" />
          </mxGeometry>
        </mxCell>
        <mxCell id="JS7ru937FT7HgsVUrFU_-136" value="" style="shape=message;html=1;whiteSpace=wrap;html=1;outlineConnect=0;fontSize=11;fillColor=#e1d5e7;strokeColor=#9673a6;" vertex="1" parent="1">
          <mxGeometry x="170" y="1380" width="30" height="20" as="geometry" />
        </mxCell>
        <mxCell id="JS7ru937FT7HgsVUrFU_-137" value="" style="edgeStyle=orthogonalEdgeStyle;rounded=0;orthogonalLoop=1;jettySize=auto;html=1;entryX=0;entryY=0.5;entryDx=0;entryDy=0;entryPerimeter=0;fontSize=11;endArrow=none;" edge="1" parent="1" source="JS7ru937FT7HgsVUrFU_-130" target="JS7ru937FT7HgsVUrFU_-136">
          <mxGeometry relative="1" as="geometry">
            <mxPoint x="120" y="1440" as="sourcePoint" />
            <mxPoint x="240" y="1320" as="targetPoint" />
          </mxGeometry>
        </mxCell>
        <mxCell id="JS7ru937FT7HgsVUrFU_-138" value="" style="group" vertex="1" connectable="0" parent="1">
          <mxGeometry x="439" y="1246" width="40" height="28" as="geometry" />
        </mxCell>
        <mxCell id="JS7ru937FT7HgsVUrFU_-141" value="" style="shape=message;html=1;whiteSpace=wrap;html=1;outlineConnect=0;fontSize=11;fillColor=#d5e8d4;strokeColor=#82b366;" vertex="1" parent="JS7ru937FT7HgsVUrFU_-138">
          <mxGeometry x="7" y="3" width="30" height="20" as="geometry" />
        </mxCell>
        <mxCell id="JS7ru937FT7HgsVUrFU_-142" value="" style="group" vertex="1" connectable="0" parent="1">
          <mxGeometry x="450" y="1306" width="40" height="28" as="geometry" />
        </mxCell>
        <mxCell id="JS7ru937FT7HgsVUrFU_-144" value="" style="shape=message;html=1;whiteSpace=wrap;html=1;outlineConnect=0;fontSize=11;fillColor=#fff2cc;strokeColor=#d6b656;" vertex="1" parent="JS7ru937FT7HgsVUrFU_-142">
          <mxGeometry x="5" y="4" width="30" height="20" as="geometry" />
        </mxCell>
        <mxCell id="JS7ru937FT7HgsVUrFU_-146" value="" style="group" vertex="1" connectable="0" parent="1">
          <mxGeometry x="445" y="1376" width="40" height="28" as="geometry" />
        </mxCell>
        <mxCell id="JS7ru937FT7HgsVUrFU_-147" value="" style="shape=message;html=1;whiteSpace=wrap;html=1;outlineConnect=0;fontSize=11;fillColor=#e1d5e7;strokeColor=#9673a6;" vertex="1" parent="JS7ru937FT7HgsVUrFU_-146">
          <mxGeometry y="4" width="30" height="20" as="geometry" />
        </mxCell>
        <mxCell id="JS7ru937FT7HgsVUrFU_-150" value="" style="edgeStyle=orthogonalEdgeStyle;rounded=0;orthogonalLoop=1;jettySize=auto;html=1;exitX=1;exitY=0.5;exitDx=0;exitDy=0;exitPerimeter=0;entryX=0;entryY=0.5;entryDx=0;entryDy=0;fontSize=11;endArrow=none;" edge="1" parent="1" source="JS7ru937FT7HgsVUrFU_-154">
          <mxGeometry relative="1" as="geometry">
            <mxPoint x="400" y="1720" as="sourcePoint" />
            <mxPoint x="445" y="1660" as="targetPoint" />
            <Array as="points">
              <mxPoint x="420" y="1720" />
              <mxPoint x="420" y="1660" />
            </Array>
          </mxGeometry>
        </mxCell>
        <mxCell id="JS7ru937FT7HgsVUrFU_-151" style="edgeStyle=orthogonalEdgeStyle;rounded=0;orthogonalLoop=1;jettySize=auto;html=1;exitX=1;exitY=0.5;exitDx=0;exitDy=0;exitPerimeter=0;entryX=0;entryY=0.5;entryDx=0;entryDy=0;fontSize=11;startArrow=none;" edge="1" parent="1" target="JS7ru937FT7HgsVUrFU_-156">
          <mxGeometry relative="1" as="geometry">
            <Array as="points">
              <mxPoint x="498" y="1660" />
              <mxPoint x="498" y="1600" />
            </Array>
            <mxPoint x="475" y="1660" as="sourcePoint" />
          </mxGeometry>
        </mxCell>
        <mxCell id="JS7ru937FT7HgsVUrFU_-152" style="edgeStyle=orthogonalEdgeStyle;rounded=0;orthogonalLoop=1;jettySize=auto;html=1;entryX=0;entryY=0.5;entryDx=0;entryDy=0;fontSize=11;" edge="1" parent="1" source="JS7ru937FT7HgsVUrFU_-154" target="JS7ru937FT7HgsVUrFU_-171">
          <mxGeometry relative="1" as="geometry">
            <Array as="points">
              <mxPoint x="420" y="1720" />
              <mxPoint x="420" y="1790" />
              <mxPoint x="500" y="1790" />
              <mxPoint x="500" y="1840" />
            </Array>
          </mxGeometry>
        </mxCell>
        <mxCell id="JS7ru937FT7HgsVUrFU_-153" style="edgeStyle=orthogonalEdgeStyle;rounded=0;orthogonalLoop=1;jettySize=auto;html=1;entryX=0;entryY=0.5;entryDx=0;entryDy=0;fontSize=11;" edge="1" parent="1" source="JS7ru937FT7HgsVUrFU_-154" target="JS7ru937FT7HgsVUrFU_-165">
          <mxGeometry relative="1" as="geometry" />
        </mxCell>
        <mxCell id="JS7ru937FT7HgsVUrFU_-154" value="&lt;font style=&quot;font-size: 11px;&quot;&gt;Broker&lt;/font&gt;" style="outlineConnect=0;dashed=0;verticalLabelPosition=bottom;verticalAlign=top;align=center;html=1;shape=mxgraph.aws3.queue;fillColor=#f0a30a;strokeColor=#BD7000;fontColor=#000000;" vertex="1" parent="1">
          <mxGeometry x="240" y="1680" width="160" height="80" as="geometry" />
        </mxCell>
        <mxCell id="JS7ru937FT7HgsVUrFU_-155" value="&#xa;&#xa;&#xa;&#xa;&#xa;&#xa;Consumer" style="group;fontSize=11;" vertex="1" connectable="0" parent="1">
          <mxGeometry x="520" y="1560" width="80" height="80" as="geometry" />
        </mxCell>
        <mxCell id="JS7ru937FT7HgsVUrFU_-156" value="" style="ellipse;whiteSpace=wrap;html=1;aspect=fixed;fillColor=#cce5ff;strokeColor=#36393d;" vertex="1" parent="JS7ru937FT7HgsVUrFU_-155">
          <mxGeometry width="80" height="80" as="geometry" />
        </mxCell>
        <mxCell id="JS7ru937FT7HgsVUrFU_-157" value="" style="html=1;verticalLabelPosition=bottom;align=center;labelBackgroundColor=#ffffff;verticalAlign=top;strokeWidth=2;strokeColor=#36393d;shadow=0;dashed=0;shape=mxgraph.ios7.icons.settings;fillColor=#eeeeee;" vertex="1" parent="JS7ru937FT7HgsVUrFU_-155">
          <mxGeometry x="17.5" y="17.5" width="45" height="45" as="geometry" />
        </mxCell>
        <mxCell id="JS7ru937FT7HgsVUrFU_-164" value="&#xa;&#xa;&#xa;&#xa;&#xa;&#xa;Consumer" style="group;fontSize=11;" vertex="1" connectable="0" parent="1">
          <mxGeometry x="520" y="1680" width="80" height="80" as="geometry" />
        </mxCell>
        <mxCell id="JS7ru937FT7HgsVUrFU_-165" value="" style="ellipse;whiteSpace=wrap;html=1;aspect=fixed;fillColor=#cce5ff;strokeColor=#36393d;" vertex="1" parent="JS7ru937FT7HgsVUrFU_-164">
          <mxGeometry width="80" height="80" as="geometry" />
        </mxCell>
        <mxCell id="JS7ru937FT7HgsVUrFU_-166" value="" style="html=1;verticalLabelPosition=bottom;align=center;labelBackgroundColor=#ffffff;verticalAlign=top;strokeWidth=2;strokeColor=#36393d;shadow=0;dashed=0;shape=mxgraph.ios7.icons.settings;fillColor=#eeeeee;" vertex="1" parent="JS7ru937FT7HgsVUrFU_-164">
          <mxGeometry x="17.5" y="17.5" width="45" height="45" as="geometry" />
        </mxCell>
        <mxCell id="JS7ru937FT7HgsVUrFU_-167" value="&#xa;&#xa;&#xa;&#xa;&#xa;&#xa;Consumer" style="group;fontSize=11;" vertex="1" connectable="0" parent="1">
          <mxGeometry x="520" y="1560" width="80" height="80" as="geometry" />
        </mxCell>
        <mxCell id="JS7ru937FT7HgsVUrFU_-168" value="" style="ellipse;whiteSpace=wrap;html=1;aspect=fixed;fillColor=#cce5ff;strokeColor=#36393d;" vertex="1" parent="JS7ru937FT7HgsVUrFU_-167">
          <mxGeometry width="80" height="80" as="geometry" />
        </mxCell>
        <mxCell id="JS7ru937FT7HgsVUrFU_-169" value="" style="html=1;verticalLabelPosition=bottom;align=center;labelBackgroundColor=#ffffff;verticalAlign=top;strokeWidth=2;strokeColor=#36393d;shadow=0;dashed=0;shape=mxgraph.ios7.icons.settings;fillColor=#eeeeee;" vertex="1" parent="JS7ru937FT7HgsVUrFU_-167">
          <mxGeometry x="17.5" y="17.5" width="45" height="45" as="geometry" />
        </mxCell>
        <mxCell id="JS7ru937FT7HgsVUrFU_-170" value="&#xa;&#xa;&#xa;&#xa;&#xa;&#xa;Consumer" style="group;fontSize=11;" vertex="1" connectable="0" parent="1">
          <mxGeometry x="520" y="1800" width="80" height="80" as="geometry" />
        </mxCell>
        <mxCell id="JS7ru937FT7HgsVUrFU_-171" value="" style="ellipse;whiteSpace=wrap;html=1;aspect=fixed;fillColor=#cce5ff;strokeColor=#36393d;" vertex="1" parent="JS7ru937FT7HgsVUrFU_-170">
          <mxGeometry width="80" height="80" as="geometry" />
        </mxCell>
        <mxCell id="JS7ru937FT7HgsVUrFU_-172" value="" style="html=1;verticalLabelPosition=bottom;align=center;labelBackgroundColor=#ffffff;verticalAlign=top;strokeWidth=2;strokeColor=#36393d;shadow=0;dashed=0;shape=mxgraph.ios7.icons.settings;fillColor=#eeeeee;" vertex="1" parent="JS7ru937FT7HgsVUrFU_-170">
          <mxGeometry x="17.5" y="17.5" width="45" height="45" as="geometry" />
        </mxCell>
        <mxCell id="JS7ru937FT7HgsVUrFU_-173" value="&#xa;&#xa;&#xa;&#xa;&#xa;&#xa;Producer" style="group;fontSize=11;" vertex="1" connectable="0" parent="1">
          <mxGeometry x="40" y="1680" width="80" height="80" as="geometry" />
        </mxCell>
        <mxCell id="JS7ru937FT7HgsVUrFU_-174" value="" style="ellipse;whiteSpace=wrap;html=1;aspect=fixed;fillColor=#66FFB3;strokeColor=#36393d;" vertex="1" parent="JS7ru937FT7HgsVUrFU_-173">
          <mxGeometry width="80" height="80" as="geometry" />
        </mxCell>
        <mxCell id="JS7ru937FT7HgsVUrFU_-175" value="" style="html=1;verticalLabelPosition=bottom;align=center;labelBackgroundColor=#ffffff;verticalAlign=top;strokeWidth=2;strokeColor=#36393d;shadow=0;dashed=0;shape=mxgraph.ios7.icons.settings;fillColor=#eeeeee;" vertex="1" parent="JS7ru937FT7HgsVUrFU_-173">
          <mxGeometry x="17.5" y="17.5" width="45" height="45" as="geometry" />
        </mxCell>
        <mxCell id="JS7ru937FT7HgsVUrFU_-179" style="edgeStyle=orthogonalEdgeStyle;rounded=0;orthogonalLoop=1;jettySize=auto;html=1;fontSize=11;startArrow=none;" edge="1" parent="1" target="JS7ru937FT7HgsVUrFU_-154">
          <mxGeometry relative="1" as="geometry">
            <mxPoint x="177.5" y="1720" as="sourcePoint" />
          </mxGeometry>
        </mxCell>
        <mxCell id="JS7ru937FT7HgsVUrFU_-182" value="" style="edgeStyle=orthogonalEdgeStyle;rounded=0;orthogonalLoop=1;jettySize=auto;html=1;fontSize=11;endArrow=none;" edge="1" parent="1" source="JS7ru937FT7HgsVUrFU_-174">
          <mxGeometry relative="1" as="geometry">
            <mxPoint x="120" y="1720" as="sourcePoint" />
            <mxPoint x="147.5" y="1720" as="targetPoint" />
          </mxGeometry>
        </mxCell>
        <mxCell id="JS7ru937FT7HgsVUrFU_-185" value="" style="group" vertex="1" connectable="0" parent="1">
          <mxGeometry x="439" y="1646" width="40" height="28" as="geometry" />
        </mxCell>
        <mxCell id="JS7ru937FT7HgsVUrFU_-186" value="" style="shape=message;html=1;whiteSpace=wrap;html=1;outlineConnect=0;fontSize=11;fillColor=#d5e8d4;strokeColor=#82b366;" vertex="1" parent="JS7ru937FT7HgsVUrFU_-185">
          <mxGeometry x="7" y="3" width="30" height="20" as="geometry" />
        </mxCell>
        <mxCell id="JS7ru937FT7HgsVUrFU_-187" value="" style="group" vertex="1" connectable="0" parent="1">
          <mxGeometry x="450" y="1706" width="40" height="28" as="geometry" />
        </mxCell>
        <mxCell id="JS7ru937FT7HgsVUrFU_-188" value="" style="shape=message;html=1;whiteSpace=wrap;html=1;outlineConnect=0;fontSize=11;fillColor=#fff2cc;strokeColor=#d6b656;" vertex="1" parent="JS7ru937FT7HgsVUrFU_-187">
          <mxGeometry x="5" y="4" width="30" height="20" as="geometry" />
        </mxCell>
        <mxCell id="JS7ru937FT7HgsVUrFU_-189" value="" style="group" vertex="1" connectable="0" parent="1">
          <mxGeometry x="445" y="1776" width="40" height="28" as="geometry" />
        </mxCell>
        <mxCell id="JS7ru937FT7HgsVUrFU_-190" value="" style="shape=message;html=1;whiteSpace=wrap;html=1;outlineConnect=0;fontSize=11;fillColor=#e1d5e7;strokeColor=#9673a6;" vertex="1" parent="JS7ru937FT7HgsVUrFU_-189">
          <mxGeometry y="4" width="30" height="20" as="geometry" />
        </mxCell>
        <mxCell id="JS7ru937FT7HgsVUrFU_-191" value="" style="group" vertex="1" connectable="0" parent="1">
          <mxGeometry x="142.5" y="1706" width="40" height="28" as="geometry" />
        </mxCell>
        <mxCell id="JS7ru937FT7HgsVUrFU_-192" value="" style="shape=message;html=1;whiteSpace=wrap;html=1;outlineConnect=0;fontSize=11;fillColor=#e1d5e7;strokeColor=#9673a6;" vertex="1" parent="JS7ru937FT7HgsVUrFU_-191">
          <mxGeometry y="8" width="30" height="20" as="geometry" />
        </mxCell>
        <mxCell id="JS7ru937FT7HgsVUrFU_-193" value="" style="shape=message;html=1;whiteSpace=wrap;html=1;outlineConnect=0;fontSize=11;fillColor=#fff2cc;strokeColor=#d6b656;" vertex="1" parent="JS7ru937FT7HgsVUrFU_-191">
          <mxGeometry x="5" y="4" width="30" height="20" as="geometry" />
        </mxCell>
        <mxCell id="JS7ru937FT7HgsVUrFU_-194" value="" style="shape=message;html=1;whiteSpace=wrap;html=1;outlineConnect=0;fontSize=11;fillColor=#d5e8d4;strokeColor=#82b366;" vertex="1" parent="JS7ru937FT7HgsVUrFU_-191">
          <mxGeometry x="10" width="30" height="20" as="geometry" />
        </mxCell>
      </root>
    </mxGraphModel>
  </diagram>
</mxfile>
